<svg width="30" height="24" viewBox="0 0 30 24" fill="none" xmlns="http://www.w3.org/2000/svg">
<path d="M19.4393 0.113281L13.362 4.01416L13.978 4.35147L19.3849 0.880844L28.5558 6.07559L23.2955 9.45203L23.5517 9.59228V10.0203L27.6719 7.37553L28.5367 7.86541L23.5517 11.0651V11.7978L27.5912 9.20484L28.5367 9.74047L23.5517 12.9402V13.6728L27.5912 11.0799L28.5367 11.6155L23.5517 14.8152V15.5479L29.8037 11.5348L28.252 10.6559L29.8037 9.65984L28.2519 8.78084L29.8036 7.78478L28.3326 6.95147L29.8227 5.99491L19.4393 0.113281ZM21.381 2.90953C20.0661 3.56928 18.3147 3.68091 17.0816 3.18347L14.671 4.73078L22.6024 9.07266L24.8888 7.60516C23.9882 6.89416 24.0632 5.83328 25.0727 5.00078L21.381 2.90953ZM13.2191 5.21853L8.80112 8.09941L17.2767 12.9785L17.3599 12.9254C17.5161 12.8248 17.7367 12.6823 18 12.5121C18.5262 12.1719 19.2227 11.7208 19.9171 11.2708C20.9172 10.6227 21.4326 10.2883 21.9119 9.97747L13.2191 5.21853ZM20.4358 5.29166H20.436C20.6359 5.29288 20.8191 5.33572 20.956 5.41322C21.0356 5.45832 21.0974 5.51395 21.1378 5.57694C21.1782 5.63993 21.1964 5.70904 21.1913 5.78033C21.1863 5.85161 21.1581 5.92367 21.1084 5.99239C21.0587 6.06111 20.9884 6.12515 20.9016 6.18084C20.8148 6.23654 20.7132 6.2828 20.6026 6.317C20.492 6.35119 20.3745 6.37264 20.2568 6.38013C20.1392 6.38762 20.0236 6.38099 19.9169 6.36063C19.8101 6.34027 19.7142 6.30657 19.6346 6.26147C19.4738 6.17038 19.3891 6.03835 19.3993 5.89442C19.4095 5.75048 19.5137 5.60644 19.6889 5.49397C19.7884 5.43008 19.9073 5.37871 20.0366 5.34367C20.1659 5.30864 20.3024 5.29086 20.4358 5.29166ZM6.78437 8.23634L0.196553 12.4648L1.66762 13.2981L0.17749 14.2547L1.72924 15.1336L0.17749 16.1297L1.72924 17.0087L0.17749 18.0048L10.5609 23.8864L16.8299 19.8623V19.1298L10.6154 23.1188L1.44449 17.924L2.33543 17.3521L10.5609 22.0113L16.8299 17.9873V17.2548L10.6154 21.2438L1.44449 16.049L2.33543 15.4771L10.5609 20.1363L16.8299 16.1123V15.3798L10.6154 19.3688L1.44449 14.174L2.27387 13.6415L10.5801 18.3465L16.8299 14.3347V14.0191L16.4874 13.822L10.6343 17.5788L1.46368 12.3841L7.38618 8.58259L6.7843 8.23616L6.78437 8.23634ZM8.06312 8.97259L5.13062 10.8548C6.03124 11.5657 5.95624 12.6265 4.94674 13.4592L8.63849 15.5504C9.9533 14.8906 11.7046 14.779 12.9377 15.2764L15.8105 13.4324L8.06299 8.97253L8.06312 8.97259ZM22.4267 10.9845C21.9239 11.3105 21.4806 11.5983 20.529 12.215C19.8898 12.6293 19.2504 13.0433 18.6109 13.457C18.3473 13.6273 18.1262 13.7702 17.9685 13.8715C17.9629 13.8753 17.9606 13.8765 17.9551 13.8801V19.2503L22.4267 16.2448L22.4267 10.9845ZM9.8648 12.077C10.0647 12.0782 10.248 12.1211 10.3848 12.1987C10.5456 12.2897 10.6302 12.4218 10.62 12.5657C10.6098 12.7096 10.5056 12.8537 10.3304 12.9662C10.1552 13.0786 9.92331 13.1503 9.68573 13.1654C9.44816 13.1805 9.22436 13.1378 9.06355 13.0468C8.90275 12.9557 8.81815 12.8237 8.82834 12.6797C8.83854 12.5358 8.94271 12.3917 9.11793 12.2793C9.21744 12.2154 9.33629 12.164 9.46562 12.129C9.59495 12.094 9.73141 12.0762 9.8648 12.077V12.077Z" fill="#1C89C7"/>
</svg>
